<svg width="1440" height="191" viewBox="0 0 1440 191" fill="none" xmlns="http://www.w3.org/2000/svg">
<g clip-path="url(#clip0_228_30)">
<mask id="mask0_228_30" style="mask-type:luminance" maskUnits="userSpaceOnUse" x="-3" y="0" width="1440" height="189">
<path d="M1437 0.5H-3V188.5H1437V0.5Z" fill="white"/>
</mask>
<g mask="url(#mask0_228_30)">
<path d="M1361.27 73.58C1370.96 73.58 1378.81 65.7271 1378.81 56.04C1378.81 46.3529 1370.96 38.5 1361.27 38.5C1351.58 38.5 1343.73 46.3529 1343.73 56.04C1343.73 65.7271 1351.58 73.58 1361.27 73.58Z" fill="#BCE3F8"/>
<path d="M1361.27 99.4898C1373.27 99.4898 1382.99 89.7654 1382.99 77.7698C1382.99 65.7742 1373.27 56.0498 1361.27 56.0498C1349.27 56.0498 1339.55 65.7742 1339.55 77.7698C1339.55 89.7654 1349.27 99.4898 1361.27 99.4898Z" fill="#BCE3F8"/>
<path d="M1361.27 128.72C1376.03 128.72 1388 116.753 1388 101.99C1388 87.2274 1376.03 75.26 1361.27 75.26C1346.51 75.26 1334.54 87.2274 1334.54 101.99C1334.54 116.753 1346.51 128.72 1361.27 128.72Z" fill="#BCE3F8"/>
<path d="M1366.27 112.85H1357.92V170.5H1366.27V112.85Z" fill="#BCE3F8"/>
<path d="M238.27 69.58C247.957 69.58 255.81 61.7271 255.81 52.04C255.81 42.3529 247.957 34.5 238.27 34.5C228.583 34.5 220.73 42.3529 220.73 52.04C220.73 61.7271 228.583 69.58 238.27 69.58Z" fill="#BCE3F8"/>
<path d="M238.27 95.4898C250.265 95.4898 259.99 85.7654 259.99 73.7698C259.99 61.7742 250.265 52.0498 238.27 52.0498C226.274 52.0498 216.55 61.7742 216.55 73.7698C216.55 85.7654 226.274 95.4898 238.27 95.4898Z" fill="#BCE3F8"/>
<path d="M238.27 124.72C253.033 124.72 265 112.753 265 97.99C265 83.2274 253.033 71.26 238.27 71.26C223.507 71.26 211.54 83.2274 211.54 97.99C211.54 112.753 223.507 124.72 238.27 124.72Z" fill="#BCE3F8"/>
<path d="M243.27 108.85H234.92V166.5H243.27V108.85Z" fill="#BCE3F8"/>
<path d="M1299.44 99.4898C1311.44 99.4898 1321.16 89.7654 1321.16 77.7698C1321.16 65.7742 1311.44 56.0498 1299.44 56.0498C1287.44 56.0498 1277.72 65.7742 1277.72 77.7698C1277.72 89.7654 1287.44 99.4898 1299.44 99.4898Z" fill="#BCE3F8"/>
<path d="M1299.44 128.72C1314.2 128.72 1326.17 116.753 1326.17 101.99C1326.17 87.2274 1314.2 75.26 1299.44 75.26C1284.68 75.26 1272.71 87.2274 1272.71 101.99C1272.71 116.753 1284.68 128.72 1299.44 128.72Z" fill="#BCE3F8"/>
<path d="M1304.45 112.85H1296.1V170.5H1304.45V112.85Z" fill="#BCE3F8"/>
<path d="M717 243.5C1205.22 243.5 1601 220.219 1601 191.5C1601 162.781 1205.22 139.5 717 139.5C228.78 139.5 -167 162.781 -167 191.5C-167 220.219 228.78 243.5 717 243.5Z" fill="#BCE3F8"/>
<path d="M118.46 57.6499H126.02V18.9999C126.02 16.8799 124.33 15.1699 122.25 15.1699C120.17 15.1699 118.46 16.8799 118.46 18.9999V57.3899" fill="#BCE3F8"/>
<path d="M126.02 49.7H159.52C160.78 49.7 161.95 49.07 162.66 48.03C163.35 46.97 163.5 45.65 163.03 44.46L158.98 34.35L163.03 24.24C163.51 23.05 163.35 21.73 162.66 20.67C161.95 19.63 160.78 19 159.52 19H126.02V49.7Z" fill="#BCE3F8"/>
<path d="M197.79 102.83L188.49 77.5699C187.99 76.2399 186.72 75.3599 185.31 75.3599H143.63L150.68 82.4399L175.44 107.33H189.36L194.61 107.37H194.63C195.73 107.37 196.77 106.83 197.4 105.93C198.04 105.03 198.17 103.87 197.78 102.83H197.79Z" fill="#BCE3F8"/>
<path d="M100.85 75.3599H59.1699C57.7599 75.3599 56.4899 76.2499 56.0099 77.5699L46.6899 102.83C46.3099 103.87 46.4399 105.02 47.0799 105.93C47.7199 106.83 48.7499 107.37 49.8499 107.37H49.8699L55.1199 107.35H69.0199L93.7899 82.4399L100.84 75.3599H100.85Z" fill="#BCE3F8"/>
<path d="M93.5798 121.07H86.8398V130.43H93.5798V121.07Z" fill="#BCE3F8"/>
<path d="M81.72 121.07H74.98V130.43H81.72V121.07Z" fill="#BCE3F8"/>
<path d="M169.5 121.07H162.76V130.43H169.5V121.07Z" fill="#BCE3F8"/>
<path d="M175.33 107.22L150.69 82.4499L143.64 75.3699L126.03 57.6599H118.47L100.86 75.3699L93.81 82.4499L69.17 107.22H55.23V157.46H189.26V107.22H175.33ZM98.72 132.99C98.72 134.4 97.57 135.55 96.16 135.55H72.41C71 135.55 69.85 134.4 69.85 132.99V118.51C69.85 117.1 71 115.95 72.41 115.95H96.16C97.57 115.95 98.72 117.1 98.72 118.51V132.99ZM114.97 151.8C111.51 151.8 111.51 146.37 114.97 146.37C118.43 146.37 118.43 151.8 114.97 151.8ZM140.01 155.78C138.32 155.72 136.6 155.7 134.89 155.68V147.15C134.89 141.11 130.02 136.2 124.05 136.2H120.43C114.44 136.2 109.57 141.11 109.57 147.15V155.68C107.88 155.7 106.16 155.72 104.45 155.78V147.16C104.45 138.29 111.61 131.07 120.43 131.07H124.05C132.85 131.07 140.01 138.29 140.01 147.16V155.78ZM122.24 122.09C112.42 122.09 104.45 114.06 104.45 104.19C104.45 94.3199 112.42 86.3099 122.24 86.3099C132.06 86.3099 140.01 94.3399 140.01 104.19C140.01 114.04 132.04 122.09 122.24 122.09ZM174.62 132.99C174.62 134.4 173.48 135.55 172.06 135.55H148.33C146.91 135.55 145.77 134.4 145.77 132.99V118.51C145.77 117.1 146.91 115.95 148.33 115.95H172.06C173.48 115.95 174.62 117.1 174.62 118.51V132.99Z" fill="#BCE3F8"/>
<path d="M157.62 121.07H150.88V130.43H157.62V121.07Z" fill="#BCE3F8"/>
<path d="M122.24 91.4299C115.25 91.4299 109.59 97.1699 109.59 104.19C109.59 111.21 115.25 116.97 122.24 116.97C129.23 116.97 134.89 111.23 134.89 104.19C134.89 97.1499 129.21 91.4299 122.24 91.4299ZM127.52 107.43H122.25C120.83 107.43 119.69 106.27 119.69 104.87V95.2599C119.69 93.8499 120.83 92.6999 122.25 92.6999C123.67 92.6999 124.81 93.8499 124.81 95.2599V102.29H127.52C128.93 102.29 130.08 103.45 130.08 104.87C130.08 106.29 128.93 107.43 127.52 107.43Z" fill="#BCE3F8"/>
</g>
<rect x="-25" y="174.5" width="1484" height="150" fill="#BCE3F8"/>
</g>
<defs>
<clipPath id="clip0_228_30">
<rect width="1768" height="243" fill="white" transform="translate(-167 0.5)"/>
</clipPath>
</defs>
</svg>
